<svg id="visual" viewBox="0 0 900 600" width="900" height="600" xmlns="http://www.w3.org/2000/svg" xmlns:xlink="http://www.w3.org/1999/xlink" version="1.1"><path d="M0 139L13.7 139C27.3 139 54.7 139 82 147C109.3 155 136.7 171 163.8 179C191 187 218 187 245.2 191C272.3 195 299.7 203 327 187C354.3 171 381.7 131 409 110C436.3 89 463.7 87 491 107C518.3 127 545.7 169 573 184C600.3 199 627.7 187 654.8 193C682 199 709 223 736.2 214C763.3 205 790.7 163 818 153C845.3 143 872.7 165 886.3 176L900 187L900 0L886.3 0C872.7 0 845.3 0 818 0C790.7 0 763.3 0 736.2 0C709 0 682 0 654.8 0C627.7 0 600.3 0 573 0C545.7 0 518.3 0 491 0C463.7 0 436.3 0 409 0C381.7 0 354.3 0 327 0C299.7 0 272.3 0 245.2 0C218 0 191 0 163.8 0C136.7 0 109.3 0 82 0C54.7 0 27.3 0 13.7 0L0 0Z" fill="#cba6f7"></path><path d="M0 265L13.7 252C27.3 239 54.7 213 82 213C109.3 213 136.7 239 163.8 252C191 265 218 265 245.2 271C272.3 277 299.7 289 327 277C354.3 265 381.7 229 409 208C436.3 187 463.7 181 491 192C518.3 203 545.7 231 573 241C600.3 251 627.7 243 654.8 248C682 253 709 271 736.2 267C763.3 263 790.7 237 818 233C845.3 229 872.7 247 886.3 256L900 265L900 185L886.3 174C872.7 163 845.3 141 818 151C790.7 161 763.3 203 736.2 212C709 221 682 197 654.8 191C627.7 185 600.3 197 573 182C545.7 167 518.3 125 491 105C463.7 85 436.3 87 409 108C381.7 129 354.3 169 327 185C299.7 201 272.3 193 245.2 189C218 185 191 185 163.8 177C136.7 169 109.3 153 82 145C54.7 137 27.3 137 13.7 137L0 137Z" fill="#9782c2"></path><path d="M0 361L13.7 350C27.3 339 54.7 317 82 322C109.3 327 136.7 359 163.8 365C191 371 218 351 245.2 362C272.3 373 299.7 415 327 416C354.3 417 381.7 377 409 345C436.3 313 463.7 289 491 300C518.3 311 545.7 357 573 376C600.3 395 627.7 387 654.8 379C682 371 709 363 736.2 344C763.3 325 790.7 295 818 295C845.3 295 872.7 325 886.3 340L900 355L900 263L886.3 254C872.7 245 845.3 227 818 231C790.7 235 763.3 261 736.2 265C709 269 682 251 654.8 246C627.7 241 600.3 249 573 239C545.7 229 518.3 201 491 190C463.7 179 436.3 185 409 206C381.7 227 354.3 263 327 275C299.7 287 272.3 275 245.2 269C218 263 191 263 163.8 250C136.7 237 109.3 211 82 211C54.7 211 27.3 237 13.7 250L0 263Z" fill="#695f8e"></path><path d="M0 427L13.7 416C27.3 405 54.7 383 82 393C109.3 403 136.7 445 163.8 447C191 449 218 411 245.2 416C272.3 421 299.7 469 327 479C354.3 489 381.7 461 409 436C436.3 411 463.7 389 491 393C518.3 397 545.7 427 573 446C600.3 465 627.7 473 654.8 465C682 457 709 433 736.2 406C763.3 379 790.7 349 818 355C845.3 361 872.7 403 886.3 424L900 445L900 353L886.3 338C872.7 323 845.3 293 818 293C790.7 293 763.3 323 736.2 342C709 361 682 369 654.8 377C627.7 385 600.3 393 573 374C545.7 355 518.3 309 491 298C463.7 287 436.3 311 409 343C381.7 375 354.3 415 327 414C299.7 413 272.3 371 245.2 360C218 349 191 369 163.8 363C136.7 357 109.3 325 82 320C54.7 315 27.3 337 13.7 348L0 359Z" fill="#413d5c"></path><path d="M0 601L13.7 601C27.3 601 54.7 601 82 601C109.3 601 136.7 601 163.8 601C191 601 218 601 245.2 601C272.3 601 299.7 601 327 601C354.3 601 381.7 601 409 601C436.3 601 463.7 601 491 601C518.3 601 545.7 601 573 601C600.3 601 627.7 601 654.8 601C682 601 709 601 736.2 601C763.3 601 790.7 601 818 601C845.3 601 872.7 601 886.3 601L900 601L900 443L886.3 422C872.7 401 845.3 359 818 353C790.7 347 763.3 377 736.2 404C709 431 682 455 654.8 463C627.7 471 600.3 463 573 444C545.7 425 518.3 395 491 391C463.7 387 436.3 409 409 434C381.7 459 354.3 487 327 477C299.7 467 272.3 419 245.2 414C218 409 191 447 163.8 445C136.7 443 109.3 401 82 391C54.7 381 27.3 403 13.7 414L0 425Z" fill="#1e1e2e"></path></svg>