<svg id="visual" viewBox="0 0 900 600" width="900" height="600" xmlns="http://www.w3.org/2000/svg" xmlns:xlink="http://www.w3.org/1999/xlink" version="1.1"><rect x="0" y="0" width="900" height="600" fill="#1e1e2e"></rect><defs><linearGradient id="grad1_0" x1="33.3%" y1="0%" x2="100%" y2="100%"><stop offset="20%" stop-color="#cba6f7" stop-opacity="1"></stop><stop offset="80%" stop-color="#cba6f7" stop-opacity="1"></stop></linearGradient></defs><defs><linearGradient id="grad1_1" x1="33.3%" y1="0%" x2="100%" y2="100%"><stop offset="20%" stop-color="#cba6f7" stop-opacity="1"></stop><stop offset="80%" stop-color="#9882c2" stop-opacity="1"></stop></linearGradient></defs><defs><linearGradient id="grad1_2" x1="33.3%" y1="0%" x2="100%" y2="100%"><stop offset="20%" stop-color="#695f8e" stop-opacity="1"></stop><stop offset="80%" stop-color="#9882c2" stop-opacity="1"></stop></linearGradient></defs><defs><linearGradient id="grad1_3" x1="33.3%" y1="0%" x2="100%" y2="100%"><stop offset="20%" stop-color="#695f8e" stop-opacity="1"></stop><stop offset="80%" stop-color="#413d5c" stop-opacity="1"></stop></linearGradient></defs><defs><linearGradient id="grad1_4" x1="33.3%" y1="0%" x2="100%" y2="100%"><stop offset="20%" stop-color="#1e1e2e" stop-opacity="1"></stop><stop offset="80%" stop-color="#413d5c" stop-opacity="1"></stop></linearGradient></defs><defs><linearGradient id="grad2_0" x1="0%" y1="0%" x2="66.7%" y2="100%"><stop offset="20%" stop-color="#cba6f7" stop-opacity="1"></stop><stop offset="80%" stop-color="#cba6f7" stop-opacity="1"></stop></linearGradient></defs><defs><linearGradient id="grad2_1" x1="0%" y1="0%" x2="66.7%" y2="100%"><stop offset="20%" stop-color="#9882c2" stop-opacity="1"></stop><stop offset="80%" stop-color="#cba6f7" stop-opacity="1"></stop></linearGradient></defs><defs><linearGradient id="grad2_2" x1="0%" y1="0%" x2="66.7%" y2="100%"><stop offset="20%" stop-color="#9882c2" stop-opacity="1"></stop><stop offset="80%" stop-color="#695f8e" stop-opacity="1"></stop></linearGradient></defs><defs><linearGradient id="grad2_3" x1="0%" y1="0%" x2="66.7%" y2="100%"><stop offset="20%" stop-color="#413d5c" stop-opacity="1"></stop><stop offset="80%" stop-color="#695f8e" stop-opacity="1"></stop></linearGradient></defs><defs><linearGradient id="grad2_4" x1="0%" y1="0%" x2="66.7%" y2="100%"><stop offset="20%" stop-color="#413d5c" stop-opacity="1"></stop><stop offset="80%" stop-color="#1e1e2e" stop-opacity="1"></stop></linearGradient></defs><g transform="translate(900, 0)"><path d="M0 540.8C-34.3 470.2 -68.6 399.5 -126.4 389C-184.2 378.4 -265.5 428 -295.7 406.9C-325.9 385.9 -305 294.3 -341.4 248C-377.8 201.8 -471.6 200.9 -514.4 167.1C-557.2 133.3 -549 66.7 -540.8 0L0 0Z" fill="#2f2d45"></path><path d="M0 432.7C-27.4 376.1 -54.9 319.6 -101.1 311.2C-147.3 302.7 -212.4 342.4 -236.5 325.5C-260.7 308.7 -244 235.4 -273.1 198.4C-302.3 161.4 -377.3 160.7 -411.5 133.7C-445.7 106.7 -439.2 53.3 -432.7 0L0 0Z" fill="#544e75"></path><path d="M0 324.5C-20.6 282.1 -41.2 239.7 -75.8 233.4C-110.5 227.1 -159.3 256.8 -177.4 244.2C-195.5 231.5 -183 176.6 -204.8 148.8C-226.7 121.1 -282.9 120.5 -308.6 100.3C-334.3 80 -329.4 40 -324.5 0L0 0Z" fill="#8070a8"></path><path d="M0 216.3C-13.7 188.1 -27.4 159.8 -50.6 155.6C-73.7 151.4 -106.2 171.2 -118.3 162.8C-130.3 154.4 -122 117.7 -136.6 99.2C-151.1 80.7 -188.6 80.4 -205.7 66.9C-222.9 53.3 -219.6 26.7 -216.3 0L0 0Z" fill="#b194dc"></path><path d="M0 108.2C-6.9 94 -13.7 79.9 -25.3 77.8C-36.8 75.7 -53.1 85.6 -59.1 81.4C-65.2 77.2 -61 58.9 -68.3 49.6C-75.6 40.4 -94.3 40.2 -102.9 33.4C-111.4 26.7 -109.8 13.3 -108.2 0L0 0Z" fill="#cba6f7"></path></g><g transform="translate(0, 600)"><path d="M0 -540.8C52.4 -528.7 104.7 -516.5 164.4 -506C224.1 -495.4 291.1 -486.6 317.9 -437.5C344.7 -388.5 331.4 -299.2 334.1 -242.8C336.9 -186.3 355.7 -162.6 392.8 -127.6C429.9 -92.6 485.4 -46.3 540.8 0L0 0Z" fill="#2f2d45"></path><path d="M0 -432.7C41.9 -422.9 83.8 -413.2 131.5 -404.8C179.3 -396.4 232.9 -389.3 254.3 -350C275.8 -310.8 265.1 -239.4 267.3 -194.2C269.5 -149 284.5 -130.1 314.2 -102.1C343.9 -74.1 388.3 -37.1 432.7 0L0 0Z" fill="#544e75"></path><path d="M0 -324.5C31.4 -317.2 62.8 -309.9 98.6 -303.6C134.4 -297.3 174.6 -292 190.7 -262.5C206.8 -233.1 198.8 -179.5 200.5 -145.7C202.1 -111.8 213.4 -97.6 235.7 -76.6C257.9 -55.6 291.2 -27.8 324.5 0L0 0Z" fill="#8070a8"></path><path d="M0 -216.3C20.9 -211.5 41.9 -206.6 65.8 -202.4C89.6 -198.2 116.4 -194.6 127.2 -175C137.9 -155.4 132.6 -119.7 133.6 -97.1C134.7 -74.5 142.3 -65 157.1 -51C172 -37.1 194.1 -18.5 216.3 0L0 0Z" fill="#b194dc"></path><path d="M0 -108.2C10.5 -105.7 20.9 -103.3 32.9 -101.2C44.8 -99.1 58.2 -97.3 63.6 -87.5C68.9 -77.7 66.3 -59.8 66.8 -48.6C67.4 -37.3 71.1 -32.5 78.6 -25.5C86 -18.5 97.1 -9.3 108.2 0L0 0Z" fill="#cba6f7"></path></g></svg>