<svg id="visual" viewBox="0 0 900 600" width="900" height="600" xmlns="http://www.w3.org/2000/svg" xmlns:xlink="http://www.w3.org/1999/xlink" version="1.1"><g stroke-width="1" stroke-linejoin="bevel"><path d="M438 313L435 416L483 315Z" fill="#464e70" stroke="#464e70"></path><path d="M435 416L507 420L483 315Z" fill="#515d85" stroke="#515d85"></path><path d="M435 416L464 493L507 420Z" fill="#7f9cdd" stroke="#7f9cdd"></path><path d="M438 313L331 403L435 416Z" fill="#3a405d" stroke="#3a405d"></path><path d="M337 491L429 537L464 493Z" fill="#748cc6" stroke="#748cc6"></path><path d="M628 334L505 219L483 315Z" fill="#8aadf4" stroke="#8aadf4"></path><path d="M483 315L505 219L438 313Z" fill="#3a405d" stroke="#3a405d"></path><path d="M438 313L322 278L331 403Z" fill="#5d6c9a" stroke="#5d6c9a"></path><path d="M505 219L372 235L438 313Z" fill="#5d6c9a" stroke="#5d6c9a"></path><path d="M372 235L322 278L438 313Z" fill="#464e70" stroke="#464e70"></path><path d="M636 375L628 334L507 420Z" fill="#7f9cdd" stroke="#7f9cdd"></path><path d="M507 420L628 334L483 315Z" fill="#515d85" stroke="#515d85"></path><path d="M337 491L464 493L435 416Z" fill="#7f9cdd" stroke="#7f9cdd"></path><path d="M630 465L636 375L507 420Z" fill="#748cc6" stroke="#748cc6"></path><path d="M331 403L337 491L435 416Z" fill="#464e70" stroke="#464e70"></path><path d="M180 408L337 491L331 403Z" fill="#7f9cdd" stroke="#7f9cdd"></path><path d="M630 465L507 420L464 493Z" fill="#2f324a" stroke="#2f324a"></path><path d="M507 600L630 465L464 493Z" fill="#7f9cdd" stroke="#7f9cdd"></path><path d="M390 101L334 183L372 235Z" fill="#515d85" stroke="#515d85"></path><path d="M372 235L334 183L322 278Z" fill="#5d6c9a" stroke="#5d6c9a"></path><path d="M662 209L611 196L628 334Z" fill="#232537" stroke="#232537"></path><path d="M628 334L611 196L505 219Z" fill="#515d85" stroke="#515d85"></path><path d="M505 219L390 101L372 235Z" fill="#8aadf4" stroke="#8aadf4"></path><path d="M313 600L428 600L429 537Z" fill="#2f324a" stroke="#2f324a"></path><path d="M429 537L507 600L464 493Z" fill="#3a405d" stroke="#3a405d"></path><path d="M428 600L507 600L429 537Z" fill="#181926" stroke="#181926"></path><path d="M229 235L206 321L322 278Z" fill="#232537" stroke="#232537"></path><path d="M322 278L206 321L331 403Z" fill="#181926" stroke="#181926"></path><path d="M713 284L662 209L628 334Z" fill="#3a405d" stroke="#3a405d"></path><path d="M713 284L628 334L636 375Z" fill="#464e70" stroke="#464e70"></path><path d="M334 183L229 235L322 278Z" fill="#5d6c9a" stroke="#5d6c9a"></path><path d="M727 399L713 284L636 375Z" fill="#5d6c9a" stroke="#5d6c9a"></path><path d="M691 512L727 399L630 465Z" fill="#7f9cdd" stroke="#7f9cdd"></path><path d="M630 465L727 399L636 375Z" fill="#2f324a" stroke="#2f324a"></path><path d="M536 102L390 101L505 219Z" fill="#232537" stroke="#232537"></path><path d="M334 183L266 127L229 235Z" fill="#464e70" stroke="#464e70"></path><path d="M536 102L505 219L611 196Z" fill="#181926" stroke="#181926"></path><path d="M567 78L536 102L611 196Z" fill="#2f324a" stroke="#2f324a"></path><path d="M603 600L691 512L630 465Z" fill="#232537" stroke="#232537"></path><path d="M507 600L603 600L630 465Z" fill="#464e70" stroke="#464e70"></path><path d="M337 491L313 600L429 537Z" fill="#5d6c9a" stroke="#5d6c9a"></path><path d="M203 600L313 600L337 491Z" fill="#3a405d" stroke="#3a405d"></path><path d="M118 377L180 408L206 321Z" fill="#5d6c9a" stroke="#5d6c9a"></path><path d="M206 321L180 408L331 403Z" fill="#3a405d" stroke="#3a405d"></path><path d="M390 101L266 127L334 183Z" fill="#748cc6" stroke="#748cc6"></path><path d="M662 115L567 78L611 196Z" fill="#7f9cdd" stroke="#7f9cdd"></path><path d="M536 102L463 0L390 101Z" fill="#687cb0" stroke="#687cb0"></path><path d="M776 226L662 115L662 209Z" fill="#515d85" stroke="#515d85"></path><path d="M662 209L662 115L611 196Z" fill="#748cc6" stroke="#748cc6"></path><path d="M776 506L787 364L727 399Z" fill="#2f324a" stroke="#2f324a"></path><path d="M727 399L787 364L713 284Z" fill="#8aadf4" stroke="#8aadf4"></path><path d="M713 284L776 226L662 209Z" fill="#181926" stroke="#181926"></path><path d="M180 408L163 511L337 491Z" fill="#464e70" stroke="#464e70"></path><path d="M603 600L695 600L691 512Z" fill="#7f9cdd" stroke="#7f9cdd"></path><path d="M691 512L776 506L727 399Z" fill="#464e70" stroke="#464e70"></path><path d="M74 289L118 377L206 321Z" fill="#7f9cdd" stroke="#7f9cdd"></path><path d="M180 408L69 484L163 511Z" fill="#232537" stroke="#232537"></path><path d="M74 289L206 321L229 235Z" fill="#464e70" stroke="#464e70"></path><path d="M163 511L203 600L337 491Z" fill="#5d6c9a" stroke="#5d6c9a"></path><path d="M833 326L776 226L713 284Z" fill="#232537" stroke="#232537"></path><path d="M695 600L776 506L691 512Z" fill="#5d6c9a" stroke="#5d6c9a"></path><path d="M197 0L196 115L266 127Z" fill="#5d6c9a" stroke="#5d6c9a"></path><path d="M266 127L196 115L229 235Z" fill="#748cc6" stroke="#748cc6"></path><path d="M294 0L266 127L390 101Z" fill="#3a405d" stroke="#3a405d"></path><path d="M593 0L463 0L567 78Z" fill="#748cc6" stroke="#748cc6"></path><path d="M567 78L463 0L536 102Z" fill="#7f9cdd" stroke="#7f9cdd"></path><path d="M463 0L398 0L390 101Z" fill="#7f9cdd" stroke="#7f9cdd"></path><path d="M900 398L833 326L787 364Z" fill="#7f9cdd" stroke="#7f9cdd"></path><path d="M787 364L833 326L713 284Z" fill="#687cb0" stroke="#687cb0"></path><path d="M662 115L593 0L567 78Z" fill="#3a405d" stroke="#3a405d"></path><path d="M674 0L593 0L662 115Z" fill="#687cb0" stroke="#687cb0"></path><path d="M61 210L74 289L229 235Z" fill="#2f324a" stroke="#2f324a"></path><path d="M118 377L69 484L180 408Z" fill="#3a405d" stroke="#3a405d"></path><path d="M398 0L294 0L390 101Z" fill="#5d6c9a" stroke="#5d6c9a"></path><path d="M0 361L69 484L118 377Z" fill="#5d6c9a" stroke="#5d6c9a"></path><path d="M163 511L111 600L203 600Z" fill="#181926" stroke="#181926"></path><path d="M69 484L111 600L163 511Z" fill="#748cc6" stroke="#748cc6"></path><path d="M695 600L806 600L776 506Z" fill="#232537" stroke="#232537"></path><path d="M900 473L900 398L787 364Z" fill="#748cc6" stroke="#748cc6"></path><path d="M828 101L662 115L776 226Z" fill="#181926" stroke="#181926"></path><path d="M794 0L674 0L662 115Z" fill="#8aadf4" stroke="#8aadf4"></path><path d="M196 115L61 210L229 235Z" fill="#515d85" stroke="#515d85"></path><path d="M74 289L0 361L118 377Z" fill="#8aadf4" stroke="#8aadf4"></path><path d="M70 106L61 210L196 115Z" fill="#181926" stroke="#181926"></path><path d="M900 473L787 364L776 506Z" fill="#748cc6" stroke="#748cc6"></path><path d="M833 326L900 194L776 226Z" fill="#3a405d" stroke="#3a405d"></path><path d="M900 398L900 326L833 326Z" fill="#687cb0" stroke="#687cb0"></path><path d="M294 0L197 0L266 127Z" fill="#181926" stroke="#181926"></path><path d="M900 194L828 101L776 226Z" fill="#464e70" stroke="#464e70"></path><path d="M806 600L900 473L776 506Z" fill="#515d85" stroke="#515d85"></path><path d="M0 319L0 361L74 289Z" fill="#232537" stroke="#232537"></path><path d="M69 484L0 533L111 600Z" fill="#2f324a" stroke="#2f324a"></path><path d="M0 231L0 319L74 289Z" fill="#7f9cdd" stroke="#7f9cdd"></path><path d="M197 0L70 106L196 115Z" fill="#2f324a" stroke="#2f324a"></path><path d="M61 210L0 231L74 289Z" fill="#464e70" stroke="#464e70"></path><path d="M900 326L900 194L833 326Z" fill="#5d6c9a" stroke="#5d6c9a"></path><path d="M0 83L0 231L61 210Z" fill="#8aadf4" stroke="#8aadf4"></path><path d="M0 361L0 533L69 484Z" fill="#8aadf4" stroke="#8aadf4"></path><path d="M900 0L794 0L828 101Z" fill="#687cb0" stroke="#687cb0"></path><path d="M828 101L794 0L662 115Z" fill="#3a405d" stroke="#3a405d"></path><path d="M806 600L900 600L900 473Z" fill="#687cb0" stroke="#687cb0"></path><path d="M0 533L0 600L111 600Z" fill="#687cb0" stroke="#687cb0"></path><path d="M900 194L900 95L828 101Z" fill="#515d85" stroke="#515d85"></path><path d="M197 0L66 0L70 106Z" fill="#2f324a" stroke="#2f324a"></path><path d="M70 106L0 83L61 210Z" fill="#5d6c9a" stroke="#5d6c9a"></path><path d="M66 0L0 83L70 106Z" fill="#5d6c9a" stroke="#5d6c9a"></path><path d="M900 95L900 0L828 101Z" fill="#5d6c9a" stroke="#5d6c9a"></path><path d="M66 0L0 0L0 83Z" fill="#515d85" stroke="#515d85"></path></g></svg>